<mxfile host="65bd71144e">
    <diagram id="nHzzt8gAxVG12YJJl5E0" name="Page-1">
        <mxGraphModel dx="1163" dy="1040" grid="1" gridSize="10" guides="1" tooltips="1" connect="1" arrows="1" fold="1" page="1" pageScale="1" pageWidth="850" pageHeight="1100" math="0" shadow="0">
            <root>
                <mxCell id="0"/>
                <mxCell id="1" parent="0"/>
                <mxCell id="61" value="" style="rounded=0;whiteSpace=wrap;html=1;fillColor=#dae8fc;strokeColor=#6c8ebf;" parent="1" vertex="1">
                    <mxGeometry x="140" y="700" width="610" height="570" as="geometry"/>
                </mxCell>
                <mxCell id="2" value="" style="rounded=0;whiteSpace=wrap;html=1;fillColor=#f5f5f5;fontColor=#333333;strokeColor=#666666;" parent="1" vertex="1">
                    <mxGeometry x="140" y="230" width="930" height="380" as="geometry"/>
                </mxCell>
                <mxCell id="3" value="&lt;h1 style=&quot;margin-top: 0px; line-height: 70%;&quot;&gt;RobotPlannerAc&lt;/h1&gt;&lt;p style=&quot;line-height: 70%;&quot;&gt;&lt;font style=&quot;line-height: 70%; font-size: 20px;&quot;&gt;robot_planner_ac&lt;/font&gt;&lt;/p&gt;" style="text;html=1;whiteSpace=wrap;overflow=hidden;rounded=0;fontFamily=Georgia;" parent="1" vertex="1">
                    <mxGeometry x="150" y="240" width="200" height="70" as="geometry"/>
                </mxCell>
                <mxCell id="27" value="&lt;h1 style=&quot;margin-top: 0px; line-height: 70%;&quot;&gt;Run&lt;/h1&gt;&lt;p style=&quot;line-height: 70%;&quot;&gt;mrapf_main&lt;/p&gt;" style="text;html=1;whiteSpace=wrap;overflow=hidden;rounded=0;fontFamily=Georgia;fontStyle=1;fontSize=18;" parent="1" vertex="1">
                    <mxGeometry x="160" y="730" width="200" height="70" as="geometry"/>
                </mxCell>
                <mxCell id="28" value="" style="group;fillColor=#d5e8d4;strokeColor=#82b366;" parent="1" vertex="1" connectable="0">
                    <mxGeometry x="310" y="995" width="360" height="250" as="geometry"/>
                </mxCell>
                <mxCell id="30" value="&lt;h1 style=&quot;margin-top: 0px; line-height: 70%;&quot;&gt;&lt;font face=&quot;Georgia&quot;&gt;CentralMRAPF&lt;/font&gt;&lt;/h1&gt;&lt;p style=&quot;line-height: 70%;&quot;&gt;&lt;font face=&quot;Georgia&quot; style=&quot;line-height: 70%; font-size: 20px;&quot;&gt;central_mrapf_service&lt;/font&gt;&lt;/p&gt;" style="text;html=1;whiteSpace=wrap;overflow=hidden;rounded=0;" parent="28" vertex="1">
                    <mxGeometry x="13.585714285714287" y="18.75" width="183.55714285714288" height="65.61290322580645" as="geometry"/>
                </mxCell>
                <mxCell id="38" value="" style="group" parent="28" vertex="1" connectable="0">
                    <mxGeometry x="34.29" y="110" width="285.71" height="137.1" as="geometry"/>
                </mxCell>
                <mxCell id="39" value="" style="rounded=0;whiteSpace=wrap;html=1;" parent="38" vertex="1">
                    <mxGeometry width="285.71" height="104.84117647058824" as="geometry"/>
                </mxCell>
                <mxCell id="40" value="&lt;h1 style=&quot;margin-top: 0px; line-height: 70%;&quot;&gt;&lt;font face=&quot;Georgia&quot;&gt;FleetDataHandler&lt;/font&gt;&lt;/h1&gt;&lt;p style=&quot;line-height: 70%;&quot;&gt;&lt;font face=&quot;Georgia&quot; style=&quot;line-height: 70%; font-size: 20px;&quot;&gt;fleet_data_handler&lt;/font&gt;&lt;/p&gt;" style="text;html=1;whiteSpace=wrap;overflow=hidden;rounded=0;" parent="38" vertex="1">
                    <mxGeometry x="12.476003333333331" y="16.130379529411766" width="186.65520878787873" height="56.45132823529412" as="geometry"/>
                </mxCell>
                <mxCell id="9" value="" style="rounded=0;whiteSpace=wrap;html=1;" parent="1" vertex="1">
                    <mxGeometry x="200" y="330" width="840" height="260" as="geometry"/>
                </mxCell>
                <mxCell id="10" value="&lt;h1 style=&quot;margin-top: 0px; line-height: 70%;&quot;&gt;&lt;font face=&quot;Georgia&quot;&gt;PlannerRT&lt;/font&gt;&lt;/h1&gt;&lt;p style=&quot;line-height: 70%;&quot;&gt;&lt;font face=&quot;Georgia&quot; style=&quot;line-height: 70%; font-size: 20px;&quot;&gt;robot_planner_rt&lt;/font&gt;&lt;/p&gt;" style="text;html=1;whiteSpace=wrap;overflow=hidden;rounded=0;" parent="1" vertex="1">
                    <mxGeometry x="220.0041509433962" y="350" width="222.64150943396226" height="70" as="geometry"/>
                </mxCell>
                <mxCell id="48" value="" style="group;dashed=1;" parent="1" vertex="1" connectable="0">
                    <mxGeometry x="210" y="430" width="280" height="150" as="geometry"/>
                </mxCell>
                <mxCell id="55" value="" style="group" parent="48" vertex="1" connectable="0">
                    <mxGeometry width="280" height="140" as="geometry"/>
                </mxCell>
                <mxCell id="49" value="" style="rounded=0;whiteSpace=wrap;html=1;dashed=1;" parent="55" vertex="1">
                    <mxGeometry width="280" height="140" as="geometry"/>
                </mxCell>
                <mxCell id="50" value="&lt;h1 style=&quot;margin-top: 0px; line-height: 70%;&quot;&gt;&lt;font face=&quot;Georgia&quot;&gt;RobotPlannerBase&lt;/font&gt;&lt;/h1&gt;&lt;p style=&quot;line-height: 70%;&quot;&gt;&lt;font face=&quot;Georgia&quot; style=&quot;line-height: 70%; font-size: 20px;&quot;&gt;robot_planner_base&lt;/font&gt;&lt;/p&gt;" style="text;html=1;whiteSpace=wrap;overflow=hidden;rounded=0;" parent="55" vertex="1">
                    <mxGeometry x="10.57" y="11.25" width="209.43" height="68.75" as="geometry"/>
                </mxCell>
                <mxCell id="53" value="" style="group" parent="1" vertex="1" connectable="0">
                    <mxGeometry x="544" y="380" width="470" height="240" as="geometry"/>
                </mxCell>
                <mxCell id="24" value="" style="rounded=0;whiteSpace=wrap;html=1;" parent="53" vertex="1">
                    <mxGeometry width="470" height="197.64705882352942" as="geometry"/>
                </mxCell>
                <mxCell id="51" value="" style="group" parent="53" vertex="1" connectable="0">
                    <mxGeometry width="470" height="240.00000000000003" as="geometry"/>
                </mxCell>
                <mxCell id="52" value="&lt;h1 style=&quot;margin-top: 0px; line-height: 70%;&quot;&gt;&lt;font face=&quot;Georgia&quot;&gt;APFPlanner&lt;/font&gt;&lt;/h1&gt;&lt;p style=&quot;line-height: 70%;&quot;&gt;&lt;font face=&quot;Georgia&quot; style=&quot;line-height: 70%; font-size: 20px;&quot;&gt;apf_planner&lt;/font&gt;&lt;/p&gt;" style="text;html=1;whiteSpace=wrap;overflow=hidden;rounded=0;" parent="51" vertex="1">
                    <mxGeometry x="20.523333333333333" y="28.23529411764706" width="351.56" height="98.82352941176471" as="geometry"/>
                </mxCell>
                <mxCell id="63" value="" style="group;dashed=1;" parent="51" vertex="1" connectable="0">
                    <mxGeometry x="180" y="47.64999999999998" width="280" height="150" as="geometry"/>
                </mxCell>
                <mxCell id="64" value="" style="group" parent="63" vertex="1" connectable="0">
                    <mxGeometry width="280" height="140" as="geometry"/>
                </mxCell>
                <mxCell id="69" value="" style="group" vertex="1" connectable="0" parent="64">
                    <mxGeometry width="280" height="140" as="geometry"/>
                </mxCell>
                <mxCell id="65" value="" style="rounded=0;whiteSpace=wrap;html=1;dashed=1;" parent="69" vertex="1">
                    <mxGeometry width="280" height="140" as="geometry"/>
                </mxCell>
                <mxCell id="66" value="&lt;h1 style=&quot;margin-top: 0px; line-height: 70%;&quot;&gt;&lt;font face=&quot;Georgia&quot;&gt;APFPlannerBase&lt;/font&gt;&lt;/h1&gt;&lt;p style=&quot;line-height: 70%;&quot;&gt;&lt;font face=&quot;Georgia&quot; style=&quot;line-height: 70%; font-size: 20px;&quot;&gt;apf_planner_base&lt;/font&gt;&lt;/p&gt;" style="text;html=1;whiteSpace=wrap;overflow=hidden;rounded=0;" parent="69" vertex="1">
                    <mxGeometry x="10.57" y="11.25" width="209.43" height="68.75" as="geometry"/>
                </mxCell>
                <mxCell id="43" value="&lt;h1 style=&quot;margin-top: 0px; line-height: 70%;&quot;&gt;&lt;font face=&quot;Georgia&quot;&gt;PlanningClients&lt;/font&gt;&lt;/h1&gt;&lt;p style=&quot;line-height: 70%;&quot;&gt;&lt;font face=&quot;Georgia&quot; style=&quot;line-height: 70%; font-size: 20px;&quot;&gt;planning_clients&lt;/font&gt;&lt;/p&gt;" style="text;html=1;whiteSpace=wrap;overflow=hidden;rounded=0;fillColor=#f5f5f5;fontColor=#333333;strokeColor=#666666;" parent="1" vertex="1">
                    <mxGeometry x="310" y="885" width="280" height="56.45" as="geometry"/>
                </mxCell>
                <mxCell id="56" value="&lt;h1 style=&quot;margin-top: 0px; line-height: 70%;&quot;&gt;&lt;font face=&quot;Georgia&quot;&gt;initiate_robots_planners&lt;/font&gt;&lt;/h1&gt;&lt;p style=&quot;line-height: 70%;&quot;&gt;&lt;font face=&quot;Georgia&quot; style=&quot;line-height: 70%; font-size: 20px;&quot;&gt;initiate_planners&lt;/font&gt;&lt;/p&gt;" style="text;html=1;whiteSpace=wrap;overflow=hidden;rounded=0;fillColor=#f5f5f5;fontColor=#333333;strokeColor=#666666;" parent="1" vertex="1">
                    <mxGeometry x="310" y="805.0029032258067" width="275.59" height="56.45" as="geometry"/>
                </mxCell>
                <mxCell id="68" style="edgeStyle=none;html=1;entryX=0.5;entryY=1;entryDx=0;entryDy=0;" parent="1" source="59" target="2" edge="1">
                    <mxGeometry relative="1" as="geometry"/>
                </mxCell>
                <mxCell id="59" value="&lt;h1 style=&quot;color: rgb(63, 63, 63); scrollbar-color: rgb(226, 226, 226) rgb(251, 251, 251); margin-top: 0px; line-height: 16.8px;&quot;&gt;&lt;font style=&quot;color: rgb(63, 63, 63); scrollbar-color: rgb(226, 226, 226) rgb(251, 251, 251);&quot; face=&quot;Georgia&quot;&gt;CentralMRAPF&lt;/font&gt;&lt;/h1&gt;&lt;p style=&quot;line-height: 70%;&quot;&gt;&lt;font face=&quot;Georgia&quot; style=&quot;line-height: 70%; font-size: 20px;&quot;&gt;central_mrapf_service&lt;/font&gt;&lt;/p&gt;" style="text;html=1;whiteSpace=wrap;overflow=hidden;rounded=0;fillColor=#d5e8d4;strokeColor=#82b366;" parent="1" vertex="1">
                    <mxGeometry x="310" y="725" width="280" height="56.45" as="geometry"/>
                </mxCell>
            </root>
        </mxGraphModel>
    </diagram>
</mxfile>